<svg height='100px' width='100px'  fill="#000000" xmlns="http://www.w3.org/2000/svg" viewBox="0 0 100 100" x="0px" y="0px"><title>jpeg</title><g><path d="M44,48.49a4.65,4.65,0,0,0-2.58-.59h-.93a1,1,0,0,0-1,1v3.56a1,1,0,0,0,1,1h1q3.38,0,3.37-2.93A2.22,2.22,0,0,0,44,48.49Z"></path><path d="M67.22,28.89,66.5,9H14.67V91.33H85.5V29.12Zm-34.95,28a8.88,8.88,0,0,1-.35,2.5,5.94,5.94,0,0,1-1.07,2.06A5,5,0,0,1,29,62.77a6.26,6.26,0,0,1-2.63.51,6.93,6.93,0,0,1-3.53-.82A5.79,5.79,0,0,1,21,60.81a1,1,0,0,1,.2-1.41l1.23-.91a1,1,0,0,1,1.37.2,3.08,3.08,0,0,0,.64.57,2.46,2.46,0,0,0,1.38.45,2.1,2.1,0,0,0,1.7-.69,4.09,4.09,0,0,0,.57-2.52V45.59a1,1,0,0,1,1-1h2.16a1,1,0,0,1,1,1ZM48.4,53.29a5.57,5.57,0,0,1-1.56,2,6.75,6.75,0,0,1-2.28,1.12,10.23,10.23,0,0,1-2.76.37H40.51a1,1,0,0,0-1,1V62a1,1,0,0,1-1,1H36.38a1,1,0,0,1-1-1V45.59a1,1,0,0,1,1-1h5.31a12.82,12.82,0,0,1,2.84.3,6.51,6.51,0,0,1,2.31,1,5,5,0,0,1,1.56,1.83,6.21,6.21,0,0,1,.57,2.8A6.3,6.3,0,0,1,48.4,53.29ZM62.78,62a1,1,0,0,1-1,1H52a1,1,0,0,1-1-1V45.59a1,1,0,0,1,1-1h9.49a1,1,0,0,1,1,1V47.1a1,1,0,0,1-1,1H56.15a1,1,0,0,0-1,1v1.71a1,1,0,0,0,1,1h4.26a1,1,0,0,1,1,1v1.48a1,1,0,0,1-1,1H56.15a1,1,0,0,0-1,1v2.23a1,1,0,0,0,1,1h5.64a1,1,0,0,1,1,1Zm16.68-1.34a.94.94,0,0,1-.33.74,8.12,8.12,0,0,1-2.2,1.28,9.2,9.2,0,0,1-3.52.65,10,10,0,0,1-3.53-.61A7.94,7.94,0,0,1,67,60.89,8.25,8.25,0,0,1,65.13,58a12.15,12.15,0,0,1,0-8.13,8.73,8.73,0,0,1,1.92-3,8.35,8.35,0,0,1,2.86-1.89,9.29,9.29,0,0,1,3.46-.64,7.45,7.45,0,0,1,3.43.73,10.39,10.39,0,0,1,1.58,1,1,1,0,0,1,.15,1.42l-1,1.16a1,1,0,0,1-1.33.18,7,7,0,0,0-.77-.48,4.19,4.19,0,0,0-2-.42,4.65,4.65,0,0,0-2,.41A4.44,4.44,0,0,0,70,49.41a5.52,5.52,0,0,0-1,1.86,8.25,8.25,0,0,0-.35,2.48A6.78,6.78,0,0,0,70,58.15a4.71,4.71,0,0,0,3.87,1.56,4.4,4.4,0,0,0,1.09-.14,2.35,2.35,0,0,0,.87-.42V57a1,1,0,0,0-1-1h-1a1,1,0,0,1-1-1v-1.4a1,1,0,0,1,1-1h4.71a1,1,0,0,1,1,1Z"></path><path d="M87,25.34,70.92,7.75A8.46,8.46,0,0,0,64.69,5H19.23a8.45,8.45,0,0,0-8.44,8.44V86.56A8.45,8.45,0,0,0,19.23,95H80.77a8.45,8.45,0,0,0,8.44-8.44V31A8.4,8.4,0,0,0,87,25.34Zm-5.33,2.51H71.31A2.82,2.82,0,0,1,68.5,25V13.44Zm-.9,61.53H19.23a2.82,2.82,0,0,1-2.82-2.82V13.44a2.82,2.82,0,0,1,2.82-2.82H62.87V25a8.45,8.45,0,0,0,8.44,8.44H83.59V86.56A2.82,2.82,0,0,1,80.77,89.38Z"></path></g></svg>