<?xml version="1.0" encoding="UTF-8"?>
<svg width="1200pt" height="1200pt" version="1.1" viewBox="0 0 1200 1200" xmlns="http://www.w3.org/2000/svg">
 <path d="m1023.3 484.71c-34.57 0-65.617 15.047-86.988 38.941l-144.48-95.52c7.0781-15.059 11.062-31.859 11.062-49.598 0-64.441-52.234-116.68-116.68-116.68-41.184 0-77.352 21.359-98.125 53.578l-298.99-70.141c2.7344-9.9102 4.2227-20.328 4.2227-31.105 0-64.441-52.234-116.68-116.68-116.68-64.438 0.003907-116.67 52.227-116.67 116.67s52.234 116.68 116.68 116.68c20.27 0 39.324-5.1719 55.934-14.27l153.14 174.94-110.06 48.145c-20.617-33-57.238-54.961-99.012-54.961-64.445 0-116.68 52.238-116.68 116.68 0 64.441 52.234 116.68 116.68 116.68 41.965 0 78.73-22.164 99.289-55.402l111.16 48.168-150.9 174.65c-17.438-10.367-37.789-16.344-59.543-16.344-64.441 0-116.68 52.234-116.68 116.68s52.234 116.68 116.68 116.68c64.441 0 116.68-52.234 116.68-116.68 0-10.836-1.5117-21.312-4.2734-31.262l298.98-69.648c20.746 32.281 56.965 53.676 98.184 53.676 64.441 0 116.68-52.234 116.68-116.68 0-17.531-3.8867-34.152-10.824-49.078l143.88-94.117c21.371 24.133 52.586 39.371 87.359 39.371 64.441 0 116.68-52.234 116.68-116.68-0.007812-64.449-52.242-116.69-116.68-116.69zm-420-24.105-99.254 114.86-62.566-71.484 145.73-63.73c4.6094 7.3789 10.008 14.207 16.094 20.352zm-343.7-164.39c5.8555-5.9141 11.062-12.469 15.551-19.523l298.8 70.105c-2.8555 10.094-4.4023 20.734-4.4023 31.754 0 10.668 1.4648 20.977 4.1406 30.793l-155.52 68.016zm29.734 335.46c2.5938-9.6602 3.9961-19.812 3.9961-30.289 0-10.668-1.4648-20.977-4.1406-30.793l119.86-52.414 72.73 83.074-71.543 82.812zm297.59 128.95-144.25-62.508 61.547-71.23 98.965 113.05c-6.1562 6.25-11.613 13.188-16.258 20.688zm-311.86 162.53c-3.7305-5.8438-7.957-11.34-12.637-16.414l157.13-181.85 153.98 66.719c-2.5938 9.6602-3.9961 19.812-3.9961 30.289 0 10.969 1.5469 21.562 4.3789 31.633zm498.5-178.57c-21.371-24.133-52.57-39.371-87.348-39.371-20.316 0-39.406 5.1953-56.039 14.328l-103.68-118.44 103.81-120.14c16.598 9.0859 35.652 14.242 55.906 14.242 34.57 0 65.617-15.047 86.988-38.941l144.48 95.52c-7.0781 15.059-11.062 31.859-11.062 49.598 0 17.531 3.8984 34.152 10.824 49.078z"/>
</svg>
